# xmcd CD database file
#
# Track frame offsets:
#	150
#	12272
#	31212
#	55725
#	74717
#	94697
#	113140
#	133085
#	145415
#	168460
#	189452
#
# Disc length: 2886 seconds
#
# Revision: 0
# Processed by: cddbd v1.5.1PL2 Copyright (c) Steve Scherf et al.
# Submitted via: CDex 1.51
#
DISCID=9b0b440b
DTITLE=岡田浩暉 - HIP88
DYEAR=1996
DGENRE=JPop
TTITLE0=ここにいな
TTITLE1=働き者な毎日〜僕を説得して〜
TTITLE2=Easy Mercy No.3
TTITLE3=LONG RUNNING
TTITLE4=不器用なラブソング
TTITLE5=BACK OF DREAM
TTITLE6=100分の1の確率
TTITLE7=〜prayer〜
TTITLE8=STRESSとDIET
TTITLE9=孤独という名の毒薬
TTITLE10=sleep through the night
EXTD=YEAR: 1996
EXTT0=
EXTT1=
EXTT2=
EXTT3=
EXTT4=
EXTT5=
EXTT6=
EXTT7=
EXTT8=
EXTT9=
EXTT10=
PLAYORDER=
